# xmcd
#
# Track frame offsets:
# 150
# 18383
# 45948
# 58310
# 69878
# 83185
# 114740
# 143810
# 161403
# 178095
# 196998
# 212595
# 225928
# 245098
# 268003
#
# Disc length: 3878 seconds
#
#
# Revision: 1
# Processed by: cddbd v1.5.2PL0 Copyright (c) Steve Scherf et al.
# Submitted via: FreeRIP 2.951 
#
DISCID=cb0f240f
DTITLE=Dorogi Barbara - Night Time Is The Right Time
DYEAR=1995
DGENRE=Blues
TTITLE0=Rabbit Foot Shake
TTITLE1=Keep Cooking Papa
TTITLE2=But I Forgive You
TTITLE3=Keep On Knockin
TTITLE4=Me And My Chauffeur Blues
TTITLE5=Baby, Please
TTITLE6=Night Time Is The Right Time
TTITLE7=Tell Me Pretty Baby
TTITLE8=When Things Go Wrong
TTITLE9=Blues In The Morning
TTITLE10=Rabbit Hop Stomp
TTITLE11=Young Womans Blues
TTITLE12=I Gotta Go Home
TTITLE13=More Than You Know
TTITLE14=Love In Vain
EXTD=
EXTT0=
EXTT1=
EXTT2=
EXTT3=
EXTT4=
EXTT5=
EXTT6=
EXTT7=
EXTT8=
EXTT9=
EXTT10=
EXTT11=
EXTT12=
EXTT13=
EXTT14=
PLAYORDER=
